<svg xmlns="http://www.w3.org/2000/svg" viewBox="0 0 640 480" width="640" height="480">
  <defs>
    <linearGradient id="g" x1="0" x2="1" y1="0" y2="1">
      <stop offset="0%" stop-color="#22d3ee"/>
      <stop offset="100%" stop-color="#7c3aed"/>
    </linearGradient>
    <filter id="glow" x="-50%" y="-50%" width="200%" height="200%">
      <feDropShadow dx="0" dy="0" stdDeviation="6" flood-color="#22d3ee" flood-opacity="0.35"/>
      <feDropShadow dx="0" dy="0" stdDeviation="10" flood-color="#7c3aed" flood-opacity="0.25"/>
    </filter>
  </defs>
  <rect x="0" y="0" width="640" height="480" fill="none"/>
  <!-- Laptop -->
  <rect x="120" y="120" rx="14" ry="14" width="400" height="240" fill="none" stroke="url(#g)" stroke-width="4" filter="url(#glow)"/>
  <rect x="150" y="150" width="340" height="180" fill="none" stroke="#22d3ee" stroke-opacity="0.5" stroke-width="2"/>
  <rect x="90" y="360" width="460" height="18" rx="9" ry="9" fill="none" stroke="url(#g)" stroke-width="3"/>
  <!-- Shield / hood motif -->
  <path d="M320 172 l64 22 v42 c0 40 -24 78 -64 96 -40 -18 -64 -56 -64 -96 v-42 l64 -22z" fill="none" stroke="url(#g)" stroke-width="4"/>
  <path d="M296 232 l24 24 36 -36" fill="none" stroke="#22d3ee" stroke-width="4"/>
  <!-- Code brackets -->
  <path d="M230 240 l-28 24 28 24" fill="none" stroke="#22d3ee" stroke-opacity="0.7" stroke-width="4"/>
  <path d="M410 240 l28 24 -28 24" fill="none" stroke="#22d3ee" stroke-opacity="0.7" stroke-width="4"/>
  <!-- Scan lines -->
  <path d="M170 180 h300" stroke="#22d3ee" stroke-opacity="0.15"/>
  <path d="M170 200 h300" stroke="#22d3ee" stroke-opacity="0.12"/>
  <path d="M170 220 h300" stroke="#22d3ee" stroke-opacity="0.10"/>
</svg> 